<svg xmlns="http://www.w3.org/2000/svg" width="10" height="5" viewBox="0 0 20 16" fill="#FF5023FF">
  <path
    d="M17.25 4.5C17.25 4.08579 16.9142 3.75 16.5 3.75H15.25C14.8358 3.75 14.5 4.08579 14.5 4.5C14.5 4.91421 14.8358 5.25 15.25 5.25H16.5C16.9142 5.25 17.25 4.91421 17.25 4.5ZM17.25 8C17.25 7.58579 16.9142 7.25 16.5 7.25H15.25C14.8358 7.25 14.5 7.58579 14.5 8C14.5 8.41421 14.8358 8.75 15.25 8.75H16.5C16.9142 8.75 17.25 8.41421 17.25 8ZM17.25 11.5C17.25 11.0858 16.9142 10.75 16.5 10.75H15.25C14.8358 10.75 14.5 11.0858 14.5 11.5C14.5 11.9142 14.8358 12.25 15.25 12.25H16.5C16.9142 12.25 17.25 11.9142 17.25 11.5ZM16.75 0C18.5449 0 20 1.45507 20 3.25V12.75C20 14.5449 18.5449 16 16.75 16H3.25C1.45507 16 0 14.5449 0 12.75V3.25C0 1.45507 1.45507 0 3.25 0H16.75ZM3.25 14.5H12V1.5H3.25C2.2835 1.5 1.5 2.2835 1.5 3.25V12.75C1.5 13.7165 2.2835 14.5 3.25 14.5ZM16.75 1.5H13.5V14.5H16.75C17.7165 14.5 18.5 13.7165 18.5 12.75V3.25C18.5 2.2835 17.7165 1.5 16.75 1.5Z"
    ></path>
</svg>
