<svg width="36" height="36" viewBox="0 0 36 36" fill="none" xmlns="http://www.w3.org/2000/svg">
<path d="M23.4543 18.1705C22.833 18.1705 22.3293 18.6742 22.3293 19.2955C22.3293 19.9168 22.833 20.4205 23.4543 20.4205H27.5452C28.1666 20.4205 28.6702 19.9168 28.6702 19.2955C28.6702 18.6742 28.1666 18.1705 27.5452 18.1705H23.4543Z" fill="white"/>
<path fill-rule="evenodd" clip-rule="evenodd" d="M29.471 5.06621C29.5871 5.73215 29.6152 6.52353 29.623 7.42896C29.7532 7.49684 29.8808 7.56909 30.0063 7.64599C31.1669 8.35717 32.1426 9.33292 32.8538 10.4935C33.6368 11.7712 33.9216 13.2521 34.0392 15.1344C34.1248 16.5037 34.1248 18.1692 34.1248 20.2148V20.2572C34.1248 21.4302 34.1248 22.4751 34.1093 23.4051C34.0613 26.2969 33.8741 28.3416 32.8538 30.0066C32.1426 31.1671 31.1669 32.1428 30.0063 32.854C28.8981 33.5332 27.6409 33.8358 26.1056 33.9818C24.5994 34.125 22.714 34.125 20.3089 34.125H15.6907C13.2857 34.125 11.4002 34.125 9.89394 33.9818C8.35861 33.8358 7.10146 33.5332 5.99323 32.854C4.83269 32.1428 3.85694 31.1671 3.14576 30.0066C2.46663 28.8983 2.16396 27.6412 2.01798 26.1058C1.87476 24.5996 1.87477 22.7141 1.87478 20.309L1.8749 19.5205C1.85513 18.7792 1.8612 17.9505 1.86775 17.057C1.8712 16.5861 1.87478 16.0971 1.87478 15.5935L1.87478 15.5284C1.87476 12.9601 1.87476 10.9443 2.04101 9.34452C2.21058 7.71282 2.5632 6.38193 3.35846 5.24079C3.83895 4.55133 4.42186 3.94309 5.08684 3.43941C6.19431 2.60056 7.49027 2.22765 9.0707 2.04914C10.6126 1.87498 12.5523 1.87499 15.0095 1.87501L23.2116 1.875C24.4094 1.87495 25.4247 1.87491 26.2341 1.98836C27.0986 2.10953 27.892 2.3791 28.5268 3.04092C29.0779 3.61539 29.3389 4.30842 29.471 5.06621ZM23.1325 4.12501C24.431 4.12501 25.287 4.1276 25.9218 4.21658C26.5192 4.30032 26.7516 4.44059 26.9031 4.59844C27.0431 4.74443 27.1694 4.96483 27.2544 5.45259C27.3113 5.77873 27.3423 6.17735 27.3587 6.68729C26.7396 6.57397 26.0714 6.50414 25.3436 6.45923C23.9786 6.375 22.3197 6.375 20.2845 6.37501H15.6907C13.2857 6.375 11.4002 6.37499 9.89394 6.51821C8.35861 6.66419 7.10146 6.96686 5.99323 7.64599C5.3958 8.01209 4.84735 8.4483 4.35875 8.94374C4.52339 7.85274 4.79301 7.11757 5.20442 6.52723C5.55179 6.02878 5.97091 5.59236 6.44537 5.23298C7.10197 4.73564 7.94624 4.44046 9.32323 4.28492C10.7242 4.12668 12.5369 4.12501 15.0794 4.12501H23.1325ZM7.16885 9.56443C7.86414 9.13835 8.73628 8.88843 10.1069 8.75811C11.4943 8.62619 13.2729 8.62501 15.7498 8.62501H20.2498C22.3267 8.62501 23.9171 8.62549 25.205 8.70496C26.4917 8.78435 27.3913 8.93913 28.1004 9.20843C28.3659 9.30929 28.6063 9.42691 28.8307 9.56443C29.6885 10.0901 30.4097 10.8113 30.9354 11.6691C31.3053 12.2727 31.541 13.0065 31.6822 14.0796H23.4543C20.5737 14.0796 18.2384 16.4148 18.2384 19.2955C18.2384 22.1762 20.5737 24.5114 23.4543 24.5114H31.8288C31.7421 26.7019 31.5031 27.9045 30.9354 28.8309C30.4097 29.6887 29.6885 30.4099 28.8307 30.9356C28.1354 31.3617 27.2633 31.6116 25.8926 31.7419C24.5053 31.8738 22.7266 31.875 20.2498 31.875H15.7498C13.2729 31.875 11.4943 31.8738 10.1069 31.7419C8.73628 31.6116 7.86414 31.3617 7.16885 30.9356C6.31106 30.4099 5.58985 29.6887 5.0642 28.8309C4.63812 28.1356 4.3882 27.2635 4.25788 25.8929C4.12596 24.5055 4.12478 22.7269 4.12478 20.25C4.12478 17.7732 4.12596 15.9945 4.25788 14.6071C4.3882 13.2365 4.63812 12.3644 5.0642 11.6691C5.58985 10.8113 6.31106 10.0901 7.16885 9.56443ZM20.4884 19.2955C20.4884 17.6575 21.8163 16.3296 23.4543 16.3296H31.8411C31.8745 17.4155 31.8748 18.6966 31.8748 20.25C31.8748 20.9759 31.8748 21.6435 31.8713 22.2614H23.4543C21.8163 22.2614 20.4884 20.9335 20.4884 19.2955Z" fill="white"/>
</svg>
